<?xml version="1.0" encoding="UTF-8"?>
<svg width="1200pt" height="1200pt" version="1.1" viewBox="300 350 600 540" xmlns="http://www.w3.org/2000/svg">
 <path d="m510 533.98c-9.6758 0-17.941-8.4648-17.941-17.941 0-27.617-25.199-50.395-56.441-50.395-31.246 0-56.441 22.777-56.441 50.395 0 9.6758-8.4648 17.941-17.941 17.941-9.4727 0-17.941-8.4648-17.941-17.941 0-47.977 41.93-86.477 92.324-86.477s92.324 39.508 92.324 86.477c-0.003906 10.684-7.0586 17.941-17.941 17.941z"/>
 <path d="m838.77 533.98c-9.6758 0-17.941-8.4648-17.941-17.941 0-27.617-25.199-50.395-56.441-50.395-31.246 0-56.441 22.777-56.441 50.395 0 9.6758-8.4648 17.941-17.941 17.941-9.4727 0-17.941-7.2578-17.941-17.941 0-47.977 41.93-86.477 92.324-86.477s92.324 38.301 92.324 86.477c0 10.684-8.2656 17.941-17.941 17.941z"/>
 <path d="m809.95 655.13c0 116.31-93.531 210.05-210.05 210.05-116.51-0.003907-209.84-93.535-209.84-210.05z"/>
</svg>
