<?xml version="1.0" encoding="UTF-8"?>
<svg width="1200pt" height="1200pt" version="1.1" viewBox="300 350 600 540" xmlns="http://www.w3.org/2000/svg">
 <path d="m473.91 471.29c-14.312 0-25.199 10.887-25.199 25.199 0-14.312-10.887-25.199-25.199-25.199s-25.199 10.887-25.199 25.199c0 30.035 50.395 55.234 50.395 55.234s50.395-25.199 50.395-55.234c0.003906-14.316-11.891-25.199-25.191-25.199z"/>
 <path d="m727.5 471.29c-14.312 0-25.199 10.887-25.199 25.199 0-14.312-10.887-25.199-25.199-25.199s-25.199 10.887-25.199 25.199c0 30.035 50.395 55.234 50.395 55.234s50.395-25.199 50.395-55.234c0.003906-14.316-10.68-25.199-25.191-25.199z"/>
 <path d="m594.05 806.32c-37.293 0-68.336-7.2578-86.477-16.73-8.4648-4.8398-12.094-15.523-7.2578-23.988 4.8398-8.4648 15.523-12.094 23.988-7.2578 45.559 23.988 193.11 28.824 269.91-103.21 4.8398-8.4648 15.523-12.094 25.199-6.0469 8.4648 4.8398 12.094 15.523 6.0469 25.199-61.082 100.99-157.03 132.03-231.41 132.03z"/>
</svg>
