<?xml version="1.0" encoding="UTF-8"?>
<svg width="1200pt" height="1200pt" version="1.1" viewBox="300 350 600 540" xmlns="http://www.w3.org/2000/svg">
 <path d="m599.9 883.12c-125.99 0-227.98-102-227.98-227.98 0-9.6758 8.4648-17.941 17.941-17.941h419.89c9.6758 0 17.941 8.4648 17.941 17.941 0.19922 125.98-101.8 227.98-227.79 227.98zm-190.69-209.84c9.6758 97.16 91.113 173.96 190.7 173.96 99.578 0 182.43-76.801 190.7-173.96z"/>
 <path d="m510 525.52c-9.6758 0-17.941-8.4648-17.941-17.941 0-27.617-25.199-50.395-56.441-50.395-31.246 0-56.441 22.777-56.441 50.395 0 9.6758-8.4648 17.941-17.941 17.941-9.4727 0-17.941-8.4648-17.941-17.941 0-47.977 41.93-86.477 92.324-86.477s92.324 38.301 92.324 86.477c-0.003906 9.6758-7.0586 17.941-17.941 17.941z"/>
 <path d="m838.77 525.52c-9.6758 0-17.941-8.4648-17.941-17.941 0-27.617-25.199-50.395-56.441-50.395-31.246 0-56.441 21.57-56.441 50.395 0 9.6758-8.4648 17.941-17.941 17.941-9.4727 0-17.941-8.4648-17.941-17.941 0-47.977 41.93-86.477 92.324-86.477s92.324 38.301 92.324 86.477c0 9.6758-8.2656 17.941-17.941 17.941z"/>
</svg>
