<?xml version="1.0" encoding="UTF-8"?>
<svg width="1200pt" height="1200pt" version="1.1" viewBox="300 350 600 540" xmlns="http://www.w3.org/2000/svg">
 <path d="m473.91 447.5c-14.312 0-25.199 10.887-25.199 25.199 0-14.312-10.887-25.199-25.199-25.199s-25.199 10.887-25.199 25.199c0 30.035 50.395 55.234 50.395 55.234s50.395-25.199 50.395-55.234c0.003906-14.312-11.891-25.199-25.191-25.199z"/>
 <path d="m776.28 447.5c-14.312 0-25.199 10.887-25.199 25.199 0-14.312-10.887-25.199-25.199-25.199s-25.199 10.887-25.199 25.199c0 30.035 50.395 55.234 50.395 55.234s50.395-25.199 50.395-55.234c0.003906-14.312-10.68-25.199-25.191-25.199z"/>
 <path d="m793.21 823.25c-9.6758 0-17.941-8.4648-17.941-17.941 0-64.707-79.219-118.73-175.17-118.73-95.953 0-175.17 52.812-175.17 118.73 0 9.6758-8.4648 17.941-17.941 17.941-9.4727 0-17.941-8.4648-17.941-17.941 0-86.477 93.531-154.81 211.25-154.81 118.73 0 211.25 67.125 211.25 154.81-0.40234 9.4727-8.8672 17.941-18.34 17.941z"/>
</svg>
