<?xml version="1.0" encoding="UTF-8"?>
<svg width="1200pt" height="1200pt" version="1.1" viewBox="300 350 600 540" xmlns="http://www.w3.org/2000/svg">
 <path d="m501.53 486.01c0 21.82-17.688 39.508-39.508 39.508-21.82 0-39.512-17.688-39.512-39.508 0-21.82 17.691-39.512 39.512-39.512 21.82 0 39.508 17.691 39.508 39.512z"/>
 <path d="m777.49 486.01c0 21.82-17.691 39.508-39.512 39.508-21.82 0-39.508-17.688-39.508-39.508 0-21.82 17.688-39.512 39.508-39.512 21.82 0 39.512 17.691 39.512 39.512z"/>
 <path d="m599.9 883.12c-125.99 0-227.98-102-227.98-227.98 0-9.6758 8.4648-17.941 17.941-17.941h419.89c9.6758 0 17.941 8.4648 17.941 17.941 0.19922 125.98-101.8 227.98-227.79 227.98zm-190.69-209.84c9.6758 97.16 91.113 173.96 190.7 173.96 99.578 0 182.43-76.801 190.7-173.96z"/>
</svg>
