<?xml version="1.0" encoding="UTF-8"?>
<svg width="1200pt" height="1200pt" version="1.1" viewBox="300 350 600 540" xmlns="http://www.w3.org/2000/svg">
 <path d="m510 533.98c-9.6758 0-17.941-8.4648-17.941-17.941 0-27.617-25.199-50.395-56.441-50.395-31.246 0-56.441 22.777-56.441 50.395 0 9.6758-8.4648 17.941-17.941 17.941-9.4727 0-17.941-8.4648-17.941-17.941 0-47.977 41.93-86.477 92.324-86.477s92.324 39.508 92.324 86.477c-0.003906 10.684-7.0586 17.941-17.941 17.941z"/>
 <path d="m838.77 533.98c-9.6758 0-17.941-8.4648-17.941-17.941 0-27.617-25.199-50.395-56.441-50.395-31.246 0-56.441 22.777-56.441 50.395 0 9.6758-8.4648 17.941-17.941 17.941-9.4727 0-17.941-7.2578-17.941-17.941 0-47.977 41.93-86.477 92.324-86.477s92.324 38.301 92.324 86.477c0 10.684-8.2656 17.941-17.941 17.941z"/>
 <path d="m594.05 806.32c-37.293 0-68.336-7.2578-86.477-16.73-8.4648-4.8398-12.094-15.523-7.2578-23.988 4.8398-8.4648 15.523-12.094 23.988-7.2578 45.559 23.988 193.11 28.824 269.91-103.21 4.8398-8.4648 15.523-12.094 25.199-6.0469 8.4648 4.8398 12.094 15.523 6.0469 25.199-61.082 100.99-157.03 132.03-231.41 132.03z"/>
</svg>
