<?xml version="1.0" encoding="UTF-8"?>
<svg width="1200pt" height="1200pt" version="1.1" viewBox="300 350 600 540" xmlns="http://www.w3.org/2000/svg">
 <path d="m501.53 486.01c0 21.82-17.688 39.508-39.508 39.508-21.82 0-39.512-17.688-39.512-39.508 0-21.82 17.691-39.512 39.512-39.512 21.82 0 39.508 17.691 39.508 39.512z"/>
 <path d="m777.49 486.01c0 21.82-17.691 39.508-39.512 39.508-21.82 0-39.508-17.688-39.508-39.508 0-21.82 17.688-39.512 39.508-39.512 21.82 0 39.512 17.691 39.512 39.512z"/>
 <path d="m718.83 754.71h-237.66c-6.0469 0-10.887-8.4648-10.887-17.941 0-9.4727 4.8398-17.941 10.887-17.941h237.66c6.0469 0 10.887 8.4648 10.887 17.941 0 9.4766-5.0391 17.941-10.883 17.941z"/>
</svg>
