<?xml version="1.0" encoding="UTF-8"?>
<svg width="1200pt" height="1200pt" version="1.1" viewBox="300 350 600 540" xmlns="http://www.w3.org/2000/svg">
 <path d="m522.29 508.18c0 21.82-17.691 39.512-39.512 39.512s-39.508-17.691-39.508-39.512c0-21.82 17.688-39.508 39.508-39.508s39.512 17.688 39.512 39.508z"/>
 <path d="m756.53 508.18c0 21.82-17.691 39.512-39.512 39.512s-39.508-17.691-39.508-39.512c0-21.82 17.688-39.508 39.508-39.508s39.512 17.688 39.512 39.508z"/>
 <path d="m599.9 839.98c-129.62 0-234.04-87.688-234.04-194.32 0-9.6758 8.4648-17.941 17.941-17.941 9.4727 0 17.941 8.4648 17.941 17.941 0 87.688 88.895 158.44 197.95 158.44 109.05 0 197.95-70.754 197.95-158.44 0-9.6758 8.4648-17.941 17.941-17.941 9.6758 0 17.941 8.4648 17.941 17.941 0.40625 106.63-104.01 194.32-233.63 194.32z"/>
</svg>
