<?xml version="1.0" encoding="UTF-8"?>
<svg width="1200pt" height="1200pt" version="1.1" viewBox="300 350 600 540" xmlns="http://www.w3.org/2000/svg">
 <path d="m501.53 509.79c0 21.82-17.688 39.512-39.508 39.512-21.82 0-39.512-17.691-39.512-39.512 0-21.82 17.691-39.508 39.512-39.508 21.82 0 39.508 17.688 39.508 39.508z"/>
 <path d="m742.41 509.79c0 21.82-17.688 39.512-39.508 39.512s-39.508-17.691-39.508-39.512c0-21.82 17.688-39.508 39.508-39.508s39.508 17.688 39.508 39.508z"/>
 <path d="m594.05 806.32c-37.293 0-68.336-7.2578-86.477-16.73-8.4648-4.8398-12.094-15.523-7.2578-23.988 4.8398-8.4648 15.523-12.094 23.988-7.2578 45.559 23.988 193.11 28.824 269.91-103.21 4.8398-8.4648 15.523-12.094 25.199-6.0469 8.4648 4.8398 12.094 15.523 6.0469 25.199-61.082 100.99-157.03 132.03-231.41 132.03z"/>
</svg>
