<svg width="28" height="28" viewBox="0 0 28 28" fill="none" xmlns="http://www.w3.org/2000/svg">
  <defs>
    <!-- Gradient definition matching bg-gradient-to-br from-blue-500 to-purple-600 -->
    <linearGradient id="logoGradient" x1="0%" y1="0%" x2="100%" y2="100%">
      <stop offset="0%" style="stop-color:#3b82f6;stop-opacity:1" />
      <stop offset="100%" style="stop-color:#9333ea;stop-opacity:1" />
    </linearGradient>
  </defs>
  
  <!-- Rounded rectangle background (rounded-md = 6px radius) -->
  <rect width="28" height="28" rx="6" ry="6" fill="url(#logoGradient)" />
  
  <!-- Map icon (HiOutlineMap from heroicons, scaled and centered) -->
  <g transform="translate(4, 4) scale(0.83)">
    <path stroke="white" stroke-width="2" stroke-linecap="round" stroke-linejoin="round" fill="none" d="M9 20l-5.447-2.724A1 1 0 013 16.382V5.618a1 1 0 011.447-.894L9 7m0 13l6-3m-6 3V7m6 10l4.553 2.276A1 1 0 0021 18.382V7.618a1 1 0 00-.553-.894L15 4m0 13V4m0 0L9 7" />
  </g>
</svg>
